<mxfile host="drawio-plugin" modified="2023-10-09T15:57:43.295Z" agent="5.0 (Macintosh; Intel Mac OS X 10_15_7) AppleWebKit/537.36 (KHTML, like Gecko) Chrome/111.0.0.0 Safari/537.36" version="20.5.3" etag="peVc-_p33HOiudyWtLW4" type="embed"><diagram id="YJGi8MNPw-SKI1YduvGF" name="Page-1"><mxGraphModel dx="632" dy="536" grid="1" gridSize="10" guides="1" tooltips="1" connect="1" arrows="1" fold="1" page="1" pageScale="1" pageWidth="850" pageHeight="1100" math="0" shadow="0"><root><mxCell id="0"/><mxCell id="1" parent="0"/><mxCell id="8" value="" style="group;fontSize=16;fillColor=#f5f5f5;strokeColor=#666666;fontColor=#333333;" vertex="1" connectable="0" parent="1"><mxGeometry x="91" y="280" width="200" height="240" as="geometry"/></mxCell><mxCell id="6" value="" style="rounded=0;whiteSpace=wrap;html=1;fillColor=#f5f5f5;fontColor=#333333;strokeColor=#666666;" vertex="1" parent="8"><mxGeometry width="200" height="240" as="geometry"/></mxCell><mxCell id="7" value="调度中心" style="text;html=1;strokeColor=none;fillColor=none;align=center;verticalAlign=middle;whiteSpace=wrap;rounded=0;fontSize=16;" vertex="1" parent="8"><mxGeometry x="4.35" y="10" width="75.65" height="20" as="geometry"/></mxCell><mxCell id="9" value="事件记录" style="rounded=1;whiteSpace=wrap;html=1;fontSize=16;fillColor=#ffe6cc;strokeColor=#d79b00;" vertex="1" parent="8"><mxGeometry x="8.7" y="90" width="71.3" height="60" as="geometry"/></mxCell><mxCell id="2" value="发布者" style="rounded=0;whiteSpace=wrap;html=1;fontSize=16;fillColor=#dae8fc;strokeColor=#6c8ebf;" vertex="1" parent="1"><mxGeometry x="371" y="300" width="120" height="60" as="geometry"/></mxCell><mxCell id="3" value="订阅者" style="rounded=0;whiteSpace=wrap;html=1;fontSize=16;fillColor=#d5e8d4;strokeColor=#82b366;" vertex="1" parent="1"><mxGeometry x="371" y="430" width="120" height="60" as="geometry"/></mxCell><mxCell id="13" value="" style="endArrow=classic;html=1;rounded=0;entryX=1;entryY=0.25;entryDx=0;entryDy=0;exitX=0;exitY=0.5;exitDx=0;exitDy=0;" edge="1" parent="1" source="2" target="9"><mxGeometry width="50" height="50" relative="1" as="geometry"><mxPoint x="311" y="339" as="sourcePoint"/><mxPoint x="361" y="380" as="targetPoint"/></mxGeometry></mxCell><mxCell id="18" value="emit" style="edgeLabel;html=1;align=center;verticalAlign=middle;resizable=0;points=[];fontSize=14;" vertex="1" connectable="0" parent="13"><mxGeometry x="0.0993" relative="1" as="geometry"><mxPoint as="offset"/></mxGeometry></mxCell><mxCell id="16" value="" style="endArrow=classic;html=1;rounded=0;entryX=1;entryY=0.75;entryDx=0;entryDy=0;exitX=0;exitY=0.5;exitDx=0;exitDy=0;" edge="1" parent="1" source="3" target="9"><mxGeometry width="50" height="50" relative="1" as="geometry"><mxPoint x="371" y="530" as="sourcePoint"/><mxPoint x="361" y="380" as="targetPoint"/></mxGeometry></mxCell><mxCell id="17" value="on" style="edgeLabel;html=1;align=center;verticalAlign=middle;resizable=0;points=[];fontSize=14;" vertex="1" connectable="0" parent="16"><mxGeometry x="0.1827" relative="1" as="geometry"><mxPoint as="offset"/></mxGeometry></mxCell></root></mxGraphModel></diagram></mxfile>